<?xml version="1.0" standalone="no"?>
<!DOCTYPE svg PUBLIC "-//W3C//DTD SVG 20010904//EN"
 "http://www.w3.org/TR/2001/REC-SVG-20010904/DTD/svg10.dtd">
<svg version="1.0" xmlns="http://www.w3.org/2000/svg"
 width="320.000000pt" height="320.000000pt" viewBox="0 0 320.000000 320.000000"
 preserveAspectRatio="xMidYMid meet">
<metadata>
Created by potrace 1.11, written by Peter Selinger 2001-2013
</metadata>
<g transform="translate(0.000000,320.000000) scale(0.100000,-0.100000)"
fill="#000000" stroke="none">
<path d="M1400 3190 c-25 -4 -63 -11 -85 -14 -177 -28 -409 -119 -572 -222
-352 -226 -600 -573 -698 -978 -35 -144 -40 -192 -39 -396 1 -204 18 -312 75
-485 177 -534 634 -944 1184 -1061 111 -24 179 -29 360 -28 156 0 200 5 360
38 74 15 233 76 337 129 378 193 657 512 791 907 40 116 53 165 62 225 3 22 9
65 14 95 17 102 7 393 -18 510 -54 257 -161 487 -319 690 -116 148 -348 338
-517 423 -131 65 -294 124 -394 142 -14 2 -58 11 -97 18 -78 15 -369 19 -444
7z"/>
</g>
</svg>
