<?xml version="1.0" encoding="utf-8"?>
<!-- Generator: Adobe Illustrator 22.0.0, SVG Export Plug-In . SVG Version: 6.00 Build 0)  -->
<svg version="1.1" id="Layer_1" xmlns="http://www.w3.org/2000/svg" xmlns:xlink="http://www.w3.org/1999/xlink" x="0px" y="0px"
	 viewBox="0 0 104 104" style="enable-background:new 0 0 104 104;" xml:space="preserve">
<style type="text/css">
	.st0{fill:#FFFFFF;stroke:#000000;stroke-width:4;stroke-miterlimit:10;}
	.st1{fill:none;stroke:#000000;stroke-width:3.0176;stroke-linecap:round;stroke-linejoin:round;}
	.st2{fill:none;stroke:#1993FF;stroke-width:1.0059;stroke-linejoin:round;stroke-miterlimit:10;}
	.st3{fill:#1993FF;}
	.st4{fill:none;stroke:#000000;stroke-width:2.0117;stroke-linecap:round;stroke-linejoin:round;}
</style>
<g>
	<rect x="2" y="2" class="st0" width="100" height="100"/>
</g>
<path class="st1" d="M68,87.7v-17c10.6-4.6,18-16.7,18-28.8c0-15.3-12.4-27.7-27.7-27.7S30.8,26.6,30.8,41.9l-7,15.6h7v17.1h12.1"/>
<path class="st2" d="M58.8,54.8c-3.1,4.1-20.9,20.5-21.9,21.5c-1,1-5,1-8,0c-3-1-10.1-15.1-9.1-19.1c1-4,5-8,5-8h7l24.3-7.7"/>
<path class="st3" d="M31.8,49.2h-7c0,0-4,4-5,8c-1,4,6,18.1,9.1,19.1c3,1,7,1,8,0l3.6-3.4L31.8,49.2z"/>
<g>
	<g>
		<path class="st4" d="M55.9,43c0-3.3,2.7-6,6-6c3.3,0,6,2.7,6,6c0,2.1-0.8,3-2,4.1c-1.3,1.2-2.8,2.8-2.8,6.1c0,1.4-1.1,2.5-2.5,2.5
			c-1.4,0-2.5-1.1-2.5-2.5"/>
	</g>
</g>
<path class="st3" d="M25.6,71.6L24.6,72c-1,0.5-2.2,0.1-2.7-0.9l-2.7-5.4c-0.5-1-0.1-2.2,0.9-2.7l0.9-0.5c1-0.5,2.2-0.1,2.7,0.9
	l2.7,5.4C26.9,69.9,26.5,71.1,25.6,71.6z"/>
</svg>
