<?xml version="1.0" encoding="utf-8"?>
<!-- Generator: Adobe Illustrator 22.0.0, SVG Export Plug-In . SVG Version: 6.00 Build 0)  -->
<svg version="1.1" id="Layer_1" xmlns="http://www.w3.org/2000/svg" xmlns:xlink="http://www.w3.org/1999/xlink" x="0px" y="0px"
	 viewBox="0 0 104 104" style="enable-background:new 0 0 104 104;" xml:space="preserve">
<style type="text/css">
	.st0{fill:#FFFFFF;stroke:#000000;stroke-width:4;stroke-miterlimit:10;}
	.st1{fill:none;stroke:#000000;stroke-width:3.0164;stroke-linecap:round;stroke-linejoin:round;}
	.st2{fill:none;stroke:#00A551;stroke-width:1.0055;stroke-linejoin:round;stroke-miterlimit:10;}
	.st3{fill:#00A551;}
	.st4{fill:none;stroke:#000000;stroke-width:2.011;stroke-linecap:round;stroke-linejoin:round;}
</style>
<g>
	<rect x="2" y="2" class="st0" width="100" height="100"/>
</g>
<path class="st1" d="M68,87.7v-17C78.6,66.1,86,54,86,41.9c0-15.3-12.4-27.7-27.7-27.7S30.7,26.7,30.7,41.9l-7,15.6h7v17.1h12.1"/>
<path class="st2" d="M58.7,54.8c-3.1,4.1-20.9,20.5-21.9,21.5c-1,1-5,1-8,0s-10.1-15.1-9-19.1c1-4,5-8,5-8h7l24.3-7.7"/>
<path class="st3" d="M31.8,49.2h-7c0,0-4,4-5,8c-1,4,6,18.1,9,19.1s7,1,8,0l3.6-3.4L31.8,49.2z"/>
<g>
	<g>
		<path class="st4" d="M55.9,43c0-3.3,2.7-5.9,5.9-5.9c3.3,0,5.9,2.7,5.9,5.9c0,2.1-0.8,3-2,4.1c-1.3,1.2-2.8,2.8-2.8,6.1
			c0,1.4-1.1,2.4-2.4,2.4c-1.4,0-2.4-1.1-2.4-2.4"/>
	</g>
</g>
</svg>
