<?xml version="1.0" encoding="utf-8"?>
<!-- Generator: Adobe Illustrator 22.0.0, SVG Export Plug-In . SVG Version: 6.00 Build 0)  -->
<svg version="1.1" id="Layer_1" xmlns="http://www.w3.org/2000/svg" xmlns:xlink="http://www.w3.org/1999/xlink" x="0px" y="0px"
	 viewBox="0 0 200 200" style="enable-background:new 0 0 200 200;" xml:space="preserve">
<style type="text/css">
	.st0{fill:#FFFFFF;}
	.st1{fill:#FFBE8E;}
	.st2{fill:#99CBAB;}
	.st3{fill:#6F868F;}
	.st4{opacity:0.6;fill:#E87B55;enable-background:new    ;}
	.st5{opacity:0.5;}
	.st6{fill:#E50A0A;}
	.st7{fill:#BF1616;}
	.st8{opacity:0.61;}
	.st9{fill:#020B41;}
	.st10{fill:#E87B55;}
	.st11{fill:#53383E;}
	.st12{fill:#C8DCDC;stroke:#FFFFFF;stroke-width:0.708;stroke-miterlimit:10;}
	.st13{fill:none;stroke:#FFFFFF;stroke-width:0.708;stroke-miterlimit:10;}
	.st14{opacity:0.25;fill:#FFFFFF;enable-background:new    ;}
	.st15{fill:#120A39;}
</style>
<rect class="st0" width="200" height="200"/>
<g>
	<g>
		<g>
			<g>
				<path class="st1" d="M170,168c-1.8-1-6.7-3.5-12.7-5.6c-4.4-1.5-6-1.7-10.8-3.3c-6.8-2.3-10.2-3.5-12.8-5.2
					c-10.3-6.9-13.2-18-13.9-21.8c-1.4-7.1-0.3-13.2,0.9-17.2c-6.6-8.6-13.1-17.1-19.7-25.7c-0.3-0.4-0.6-0.7-0.8-1.1
					c-0.3,0.4-0.6,0.7-0.8,1.1c-6.6,8.6-13.1,17.1-19.7,25.7c1.2,3.9,2.3,10,0.9,17.2c-0.8,3.8-3.6,14.9-13.9,21.8
					c-2.6,1.7-6,2.9-12.8,5.2c-4.6,1.5-6.3,1.7-10.8,3.3c-6,2.1-10.4,4.4-11.5,5c-11.1,6.2-14.6,24.9-15.3,29.1
					c56-0.1,112-0.2,168.1-0.3C183.5,190.9,180.9,174.3,170,168z"/>
				<g>
					<path class="st2" d="M183.8,185c-1.3-3.6-3.6-10.2-8.5-15.2c-4.1-4.2-7.8-4.4-24.3-9.6c-4.3-1.4-8.1-2.6-11-3.6
						c-2.7-1.4-4.8-2.6-6.5-3.6c-2,4.4-4.8,8.2-8.2,11.4c-1.4,1.3-5.4,4.9-11.6,7.4c-5.4,2.2-9.9,2.6-11.1,2.6c-0.7,0-2.5,0.1-4.9,0
						c-2.7-0.2-6.8-0.8-11.4-2.7c-2.8-1.1-7.1-3.3-11.4-7.4c-3.3-3.1-6.1-6.9-8.1-11.2c-1.6,1-3.7,2.2-6.2,3.5
						c-3,1-6.9,2.3-11.5,3.7c-16.7,5.3-20.3,5.5-24.3,9.6c-4.9,5-7.2,11.6-8.5,15.2c-2.1,6.1-2.8,11.5-3.1,15.2
						c57.8,0,115.6,0,173.4,0C186.6,196.5,185.9,191.1,183.8,185z"/>
					<g>
						<path class="st3" d="M111.5,200.2H88.6c0-9.2,0-18.3,0-27.5c2.8,0.8,6.8,1.7,11.7,1.7c4.7,0,8.5-0.9,11.2-1.7
							C111.5,181.9,111.5,191.1,111.5,200.2z"/>
						<circle class="st2" cx="100.2" cy="181" r="3.7"/>
						<circle class="st2" cx="100.4" cy="192.8" r="3.7"/>
					</g>
					<path class="st3" d="M96,157.7c-1.3-2.5-3-4-4.2-5c-6.3-5.5-12.7-10.7-15.3-12.7c-3.9,4.8-7.8,9.5-11.7,14.3
						c3.3,5,11.9,16.4,26.4,19.4c2.3,0.5,4.5,0.7,6.5,0.7c0-3.2,0-6.4,0-9.6C97.8,163.4,97.6,160.7,96,157.7z"/>
					<path class="st3" d="M104.2,157.7c1.3-2.5,3.1-4,4.2-5c6.4-5.6,12.7-10.6,15.4-12.7c3.9,4.8,7.9,9.5,11.8,14.3
						c-3.4,5-12.1,16.4-26.5,19.4c-2.3,0.5-4.5,0.7-6.6,0.7c0-3.2,0-6.4,0-9.6C102.5,163.4,102.6,160.7,104.2,157.7z"/>
				</g>
				<path class="st4" d="M80.9,123.1c0.1,1.2,0.2,2.5,0.2,3.9c0,1.6-0.2,3.1-0.4,4.4c1.8,2.1,4.6,5.1,8.9,7.8
					c4.1,2.7,7.2,4.6,11.3,4.6c4.3,0,7.5-2.2,11.6-4.9c3.4-2.3,5.8-4.6,7.3-6.3c-0.2-1.1-0.4-2.3-0.5-3.6c-0.2-2.5-0.1-4.8,0.2-6.7
					c-4,1.6-10.3,3.6-18.5,3.9C92.1,126.5,85,124.6,80.9,123.1z"/>
			</g>
			<g>
				<path class="st1" d="M65.2,84c-1.5-1.8-4.1-3-5.3-2c-1,0.9-0.5,2.9,0.4,9.3c1.5,10.4,1.1,11,2.3,13.4c2,4.1,5.9,8.3,7.5,7.3
					c2-1.2-1.9-9-2.8-22C67.1,88.9,66.9,86.1,65.2,84z"/>
				<path class="st1" d="M133.3,84c1.5-1.8,4.1-3,5.3-2c1,0.9,0.5,2.9-0.4,9.3c-1.5,10.4-1.1,11-2.3,13.4c-2,4.1-5.9,8.3-7.5,7.3
					c-2-1.2,1.9-9,2.8-22C131.4,88.9,131.6,86.1,133.3,84z"/>
			</g>
			<g>
				<g>
					<path class="st1" d="M122.8,125c-3.4,4.5-7,7.2-9.6,9.1c-5.5,4-9,6.6-13.7,6.6c-4.1,0-7.4-2.2-13.9-6.6c-6-4.1-9-6.2-11.6-9.6
						c-3.8-5.1-5.1-11-7.2-22.8c-0.6-3.6-2.4-7.9-1.8-13.8c0.7-6.3,0.9-10.8,0.9-14.1c0-5.8,0.1-8.7,0.1-10.3
						c0.4-11,14-30.3,32.8-30.3c21,0,31.5,24.1,32,25.4c4.4,10.5,2.8,22,2.9,29c0.1,6-1.5,10.3-2.4,14.3
						C128.9,112.6,127.5,118.7,122.8,125z"/>
					<g>
						<g>
							<path class="st4" d="M79.5,114.2c0.1,0.1,2.7-1,5.2-3.3c2.3-2,3.7-4.2,3.6-4.3c-0.1-0.1-1.4,1.6-4.1,3.9
								C81.5,112.9,79.4,114.1,79.5,114.2z"/>
							<path class="st4" d="M110.4,106c-0.1,0.1,0.7,2.2,2.4,4.2c2.4,3,5.3,4.4,5.4,4.3s-2-1.3-4.4-4.1
								C111.5,108,110.5,106,110.4,106z"/>
						</g>
						<g>
							<path class="st4" d="M79.9,67.7c0,0.2,8.7,0.5,12.5,0.9c1.1,0.1,1.7,0.2,2.2,0.3c1.8,0.4,2.6,0.8,5.4,0.9c1.1,0,2.1,0,2.9,0
								c2.9-0.3,4.3-0.3,7.2-0.7c5.6-0.8,9.8-0.6,9.8-0.7s-3.7,0.2-9-0.1c-1.7-0.1-1.6-0.2-2.5-0.1c-2.4,0-3.9,0.6-8,0.5
								c-3.7-0.1-4.7-0.6-6.6-0.8c-1.1-0.1-1.9-0.1-2.5-0.1C80.5,67.6,79.9,67.6,79.9,67.7z"/>
							<path class="st4" d="M87.6,62.1c0,0.2,2.2-0.1,5.4,0.3c3.5,0.4,3.6,1,6.2,1.2c3.5,0.3,3.8-0.7,8.1-0.8
								c4.2-0.1,7.1,0.8,7.1,0.7c0-0.2-2.8-1.1-6.4-1.4c-4.2-0.3-4.4,0.7-8.5,0.3c-3.2-0.3-4-1-7.3-1C89.7,61.5,87.6,62,87.6,62.1z"
								/>
						</g>
						<g class="st5">
							<path class="st4" d="M116.4,116.2c0.1,0,0,2.1-0.9,4.5c-0.9,2.3-2.2,3.9-2.3,3.9c-0.1,0,1-1.4,1.9-3.7
								C116.2,118.2,116.3,116.2,116.4,116.2z"/>
							<path class="st4" d="M121.2,118.3c0.1,0-1,2.2-1.9,3.7c-1.5,2.6-3.3,5.1-3.4,5.1C115.7,126.9,121,118.2,121.2,118.3z"/>
						</g>
						<g class="st5">
							<path class="st4" d="M82,117.3c-0.1,0,0,2.1,0.9,4.5c0.9,2.3,2.2,3.9,2.3,3.9c0.1,0-1-1.4-1.9-3.7
								C82.3,119.3,82.1,117.2,82,117.3z"/>
							<path class="st4" d="M77.3,119.4c-0.1,0,1,2.2,1.9,3.7c1.5,2.6,3.3,5.1,3.4,5.1C82.7,128,77.4,119.3,77.3,119.4z"/>
						</g>
					</g>
					<g>
						<path class="st6" d="M110.7,118.2c-3,0.9-7,1.7-11.7,1.8c-4.7-0.1-8.7-0.9-11.7-1.8c0.6,1.3,1.9,4.1,4.7,6.2
							c0.9,0.7,3.4,2.6,7,2.6s6.1-1.9,7-2.6C108.7,122.3,110.1,119.6,110.7,118.2z"/>
						<path class="st7" d="M112.5,117c0-0.1-0.3,0.1-1.1,0.2c-3,0.5-4.9-0.1-9-0.2c-0.2,0-0.4,0-0.6,0c-1.6,0-2,0.4-2.8,0.6
							c-0.9-0.1-1.2-0.5-2.8-0.6c-0.2,0-0.4,0-0.6,0c-4,0.2-6,0.7-9,0.2c-0.8-0.1-1.1-0.2-1.1-0.2c-0.1,0.3,6.3,4.6,13.8,4.5
							C106.5,121.5,112.6,117.3,112.5,117z"/>
					</g>
					<g>
						<path class="st4" d="M91.7,103.2c-0.1-0.1-1,0.4-1.4,1.3c-0.8,1.3-0.1,2.9,0,2.9s-0.2-1,0.3-2.2
							C91,103.9,91.8,103.3,91.7,103.2z"/>
						<path class="st4" d="M91.6,108.4c0-0.2,1.1-0.2,1.8,0c2.3,0.6,3.5,3.3,3.4,3.3c0,0-0.5-1.1-1.8-1.8c-0.7-0.4-1.1-0.4-2.7-1
							C91.8,108.6,91.6,108.4,91.6,108.4z"/>
						<path class="st4" d="M106,109c-0.1-0.2-0.9-0.4-1.6-0.1c-0.4,0.2-0.7,0.5-1.2,1.2c-0.3,0.3-0.4,0.6-0.5,0.7
							c-0.9,1.4-3.8,1.5-3.8,1.6c0,0,2.4,0.4,3.8-0.9c0.5-0.5,0.8-1,1.5-1.3c0.3-0.1,0.7-0.2,1.2-0.6C105.7,109.4,106,109.2,106,109
							z"/>
						<path class="st4" d="M107.2,103.3c-0.1,0,0.5,0.5,0.9,1.4c0.8,1.6,0.5,3,0.6,3s0.6-1.5-0.1-2.9
							C108.2,103.8,107.3,103.2,107.2,103.3z"/>
					</g>
					<g>
						<g>
							<g>
								<g class="st8">
									<path class="st4" d="M71.3,88.2c0,0.1,1,0.4,2.2,0.6c2.6,0.4,4.9-0.2,4.9-0.3c0-0.1-1.4,0.1-4.1-0.1
										C72.4,88.3,71.3,88.1,71.3,88.2z"/>
									<path class="st4" d="M71.3,90.4c0,0.1,1.1,0.1,2.3-0.1c2.6-0.4,4.5-1.6,4.5-1.8c0-0.1-1.2,0.5-3.9,1.2
										C72.5,90.1,71.3,90.3,71.3,90.4z"/>
								</g>
								<g>
									<path class="st4" d="M89.5,91.5c0.1,0.1-1.4,1-3.2,1.6c-5.6,2-11.6-0.2-11.5-0.3c0-0.1,4.1,1.5,9.3,0.5
										C87.1,92.7,89.4,91.4,89.5,91.5z"/>
								</g>
							</g>
							<g>
								<g class="st8">
									<path class="st4" d="M128.2,88c0,0.1-1,0.4-2.2,0.6c-2.6,0.4-4.9-0.1-4.9-0.2s1.4,0.1,4.1-0.2
										C127.1,88.1,128.2,87.9,128.2,88z"/>
									<path class="st4" d="M128.2,90.2c0,0.1-1.1,0.1-2.3-0.1c-2.6-0.4-4.6-1.5-4.5-1.7c0-0.1,1.3,0.5,3.9,1.1
										C127.1,89.9,128.2,90.1,128.2,90.2z"/>
								</g>
								<g>
									<path class="st4" d="M109.7,91.4c-0.1,0.1,1.4,1,3.2,1.6c5.6,1.9,11.6-0.3,11.5-0.4c0-0.1-4.1,1.5-9.3,0.5
										C112.1,92.6,109.8,91.3,109.7,91.4z"/>
								</g>
							</g>
						</g>
						<g>
							<g>
								<g>
									<path class="st0" d="M77.3,88.6c0.7-2.1,1.9-2.9,2.4-3.2c2.8-1.6,7.5-0.5,11,3.2c-0.7,0.6-3.5,2.9-7.2,2.8
										c-1.8-0.1-3.4-0.9-3.6-1C78.7,89.8,77.8,89.1,77.3,88.6z"/>
									<path class="st9" d="M79.8,87.8c0-2,1.5-3.7,3.5-3.7c1.9,0,3.5,1.6,3.6,3.6c0,2-1.5,3.7-3.5,3.7S79.8,89.8,79.8,87.8z"/>
									<path class="st9" d="M81.6,87.7c0-1,0.7-1.7,1.7-1.7c0.9,0,1.7,0.8,1.7,1.7c0,1-0.7,1.7-1.7,1.7
										C82.4,89.4,81.7,88.7,81.6,87.7z"/>
								</g>
								<path class="st10" d="M90.7,88.6c-1.5,0.4-2.8,0.7-3.8,0.8c-6,1-8.1,0.1-8.7-0.2c-0.4-0.2-0.7-0.4-0.9-0.6
									c0,0.7,0.1,1.6,0.6,2.3c2,2.5,7.6,0.8,8,0.6C87,91.2,88.9,90.4,90.7,88.6z"/>
								<path class="st9" d="M77.3,88.6c-1,0-2-0.1-3-0.1c0.6-0.8,1.7-2.1,3.8-3.1c1-0.5,3-1.4,5.6-1.2c0.4,0,2.6,0.2,4.5,1.5
									c1,0.7,1.6,1.5,1.8,1.8c0.3,0.5,0.5,0.9,0.7,1.2c-0.5-0.4-1.2-1-2.2-1.5c-1.2-0.7-2.6-1.5-4.6-1.7c-0.6,0-2-0.1-3.5,0.5
									C78.3,86.7,77.5,88.2,77.3,88.6z"/>
							</g>
							<g>
								<g>
									<path class="st0" d="M122,88.4c-0.7-2.1-1.9-2.9-2.4-3.2c-2.8-1.6-7.5-0.5-11,3.2c0.7,0.6,3.5,2.9,7.2,2.8
										c1.8-0.1,3.4-0.9,3.6-1C120.7,89.6,121.5,88.9,122,88.4z"/>
									<path class="st9" d="M119.6,87.6c0-2-1.5-3.7-3.5-3.7c-1.9,0-3.5,1.6-3.6,3.6c0,2,1.5,3.7,3.5,3.7
										C117.9,91.2,119.5,89.6,119.6,87.6z"/>
									<path class="st9" d="M117.7,87.6c0-1-0.7-1.7-1.7-1.7c-0.9,0-1.7,0.8-1.7,1.7c0,1,0.7,1.7,1.7,1.7
										C116.9,89.3,117.7,88.5,117.7,87.6z"/>
								</g>
								<path class="st10" d="M108.6,88.4c1.5,0.4,2.8,0.7,3.8,0.8c6,1,8.1,0.1,8.7-0.2c0.4-0.2,0.7-0.4,0.9-0.6
									c0,0.7-0.1,1.6-0.6,2.3c-2,2.5-7.6,0.8-8,0.6C112.4,91,110.5,90.2,108.6,88.4z"/>
								<path class="st9" d="M122,88.4c1,0,2-0.1,3-0.1c-0.6-0.8-1.7-2.1-3.8-3.1c-1-0.5-3-1.4-5.6-1.2c-0.4,0-2.6,0.2-4.5,1.5
									c-1,0.7-1.6,1.5-1.8,1.8c-0.3,0.5-0.5,0.9-0.7,1.2c0.5-0.4,1.2-1,2.2-1.5c1.2-0.7,2.6-1.5,4.6-1.7c0.6,0,2-0.1,3.5,0.5
									C121,86.5,121.8,88,122,88.4z"/>
							</g>
						</g>
					</g>
					<g>
						<path class="st11" d="M69.6,80.2c-0.3-0.4,1.8-3.2,5.1-4.7c0.7-0.3,2.4-1.1,4.7-1.3c2.8-0.2,4.7,0.5,6.7,1.2
							c3.3,1.2,4,2.3,4.2,2.6c0.2,0.4,0.9,1.6,0.4,2.1c-1.2,1.6-8.3-4.5-15.5-2.7C71.8,78.3,69.9,80.6,69.6,80.2z"/>
						<path class="st11" d="M129.4,80.2c0.3-0.4-1.8-3.2-5.1-4.7c-0.7-0.3-2.4-1.1-4.7-1.3c-2.8-0.2-4.7,0.5-6.7,1.2
							c-3.3,1.2-4,2.3-4.2,2.6c-0.2,0.4-0.9,1.6-0.4,2.1c1.2,1.6,8.3-4.5,15.5-2.7C127.2,78.3,129.2,80.6,129.4,80.2z"/>
					</g>
				</g>
			</g>
		</g>
	</g>
	<path class="st12" d="M67.2,101.7c0,0,21.9-6.6,31.6-6.6s31.6,6.6,31.6,6.6s-3.2,39-31.6,39S67.2,101.7,67.2,101.7z"/>
	<path class="st12" d="M70.2,115.6c0,0,19.9-6,27.3-6s29.9,6,29.9,6"/>
	<path class="st12" d="M71.5,120.9c-1.6,0.4,17.8-3.1,25.9-3.3c7.3-0.2,28.6,2.7,28.6,2.7"/>
	<path class="st13" d="M130,101.7c0,0,1.3-16.6,4-18"/>
	<path class="st13" d="M67.5,101.7c0,0-1.3-16.6-4-18"/>
	<path class="st11" d="M138.7,89.3c1.4-1.9,11.7-15.8,7.2-32.2c-2.6-9.5-9.5-17-16.4-20.3c-2.2-1-6.9-3.2-10.6-1.8
		c-0.1-0.7-0.2-1.4-0.5-2c-3.3-8.4-29.7-12.8-47.4-0.8C53.6,43.9,49.6,69.4,56,87.6c3,8.3,7.8,14.2,11.4,17.8
		C67,103.8,62,79.3,77.9,63.8c8.1-8,18.5-10.4,19.8-10.7c6.9-1.6,12.8-1,16.3-0.4c1.3-1.8,3.4-5.2,4.4-9.9c0.9,3.1,1.2,7,0.4,12.1
		c4.6,2.6,7,5.6,8.3,8c6.2,10.7,0.9,25.5,5.3,27.1c0.4,0.1,0.7,0.1,0.9,0.1c0-0.5,0.1-1.2,0.3-2.1c0.4-2.1,0.6-3.4,1.7-4.2
		c0.7-0.6,1.9-0.9,2.9-0.5c0.1,0.1,0.3,0.1,0.5,0.3c0.4,0.4,0.6,1,0.4,3.2C139.1,87.3,139,88.2,138.7,89.3z"/>
	<g>
		<path class="st14" d="M93.8,84.8c2.4,4,0.2,10.3-3.7,13.7c-3.1,2.7-6.7,3.1-8.1,3.2s-5,0.4-8.1-1.6c-5.4-3.5-7.3-12.8-3.2-17.5
			c2.9-3.4,8.1-3.3,11.3-3.2c1.6,0,5,0.2,8.3,2.2C91.6,82.5,92.9,83.3,93.8,84.8z"/>
		<path class="st14" d="M105.9,84.8c-2.4,4-0.2,10.3,3.7,13.7c3.1,2.7,6.7,3.1,8.1,3.2s5,0.4,8.1-1.6c5.4-3.5,7.3-12.8,3.2-17.5
			c-2.9-3.4-8.1-3.3-11.3-3.2c-1.6,0-5,0.2-8.3,2.2C108.1,82.5,106.8,83.3,105.9,84.8z"/>
		<path class="st15" d="M130.6,79.4c-3.8-0.9-16.2-3.9-24.4,2.3c-0.6,0.4-1,0.8-1.2,1c-3.7,0-7.3,0-11,0c-0.2-0.2-0.6-0.6-1.2-1
			c-8.2-6.3-20.9-3.2-24.4-2.3c-1.1,0.3-2.8,0.7-4.9,1.5c0,1.1,0,2.3-0.1,3.4c0.3,0,0.7,0.1,1.1,0.3c0,0,0.6,0.3,1,0.8
			c1.1,1.4,1.2,4.5,1.3,5.1c0.2,3,1.3,5.9,2.6,7.6c1.7,2.3,4.1,3.2,5.4,3.8c4.3,1.7,10.4,1.6,15.2-1.9c3.7-2.7,7.5-8,6.3-11.6
			c-0.4-1.1-0.9-1.9-0.4-2.8c1-1.9,6.2-1.9,7.2,0c0.5,0.8,0,1.7-0.4,2.8c-1.2,3.6,2.7,8.9,6.3,11.6c4.8,3.5,10.8,3.6,15.2,1.9
			c1.3-0.5,3.7-1.4,5.4-3.8c1.3-1.7,2.4-4.6,2.6-7.6c0-0.6,0.2-3.7,1.3-5.1c0.4-0.6,1-0.8,1-0.8c0.5-0.2,1-0.3,1.3-0.3
			c0-1.1,0.1-2.2,0.1-3.3C133.7,80.2,131.8,79.7,130.6,79.4z M89.5,98.2c-3,2.6-6.5,2.9-7.8,3.1c-1.3,0.1-4.9,0.4-7.9-1.5
			c-5.2-3.5-7-12.5-3.1-17c2.8-3.3,7.8-3.1,10.9-3.1c1.6,0,4.8,0.2,8.1,2.2c1.3,0.8,2.5,1.6,3.4,3C95.4,88.8,93.3,94.9,89.5,98.2z
			 M125.2,99.7c-3,1.9-6.5,1.6-7.9,1.5c-1.3-0.1-4.8-0.5-7.8-3.1c-3.8-3.3-5.9-9.4-3.6-13.2c0.9-1.4,2.1-2.2,3.4-3
			c3.3-2,6.5-2.1,8.1-2.2c3.1-0.1,8.1-0.2,10.9,3.1C132.2,87.3,130.4,96.3,125.2,99.7z"/>
	</g>
</g>
</svg>
