<?xml version="1.0" encoding="utf-8"?>
<!-- Generator: Adobe Illustrator 22.0.0, SVG Export Plug-In . SVG Version: 6.00 Build 0)  -->
<svg version="1.1" id="Layer_1" xmlns="http://www.w3.org/2000/svg" xmlns:xlink="http://www.w3.org/1999/xlink" x="0px" y="0px"
	 viewBox="0 0 200 200" style="enable-background:new 0 0 200 200;" xml:space="preserve">
<style type="text/css">
	.st0{fill:#FFFFFF;}
	.st1{fill:#FFBE8E;}
	.st2{fill:#99CBAB;}
	.st3{fill:#6F868F;}
	.st4{opacity:0.6;fill:#E87B55;enable-background:new    ;}
	.st5{fill:#E50A0A;}
	.st6{fill:#BF1616;}
	.st7{fill:#020B41;}
	.st8{fill:#53383E;}
	.st9{opacity:0.25;fill:#FFFFFF;enable-background:new    ;}
	.st10{fill:#120A39;}
	.st11{opacity:0.35;fill:#C8DCDC;stroke:#FFFFFF;stroke-width:0.7181;stroke-miterlimit:10;enable-background:new    ;}
	.st12{fill:#00A701;}
	.st13{fill:#231F20;}
	.st14{font-family:'Helvetica';}
	.st15{font-size:2.6px;}
</style>
<rect class="st0" width="200" height="200"/>
<g>
	<g>
		<g>
			<g>
				<path class="st1" d="M169.9,168c-1.8-1-6.7-3.5-12.7-5.6c-4.4-1.5-6-1.7-10.8-3.3c-6.8-2.3-10.2-3.5-12.8-5.2
					c-10.3-6.9-13.2-18-13.9-21.7c-1.4-7.1-0.3-13.2,0.9-17.1c-6.6-8.5-13.1-17.1-19.7-25.6c-0.3-0.4-0.6-0.7-0.8-1.1
					c-0.3,0.4-0.6,0.7-0.8,1.1c-6.6,8.5-13.1,17.1-19.7,25.6c1.2,3.9,2.3,10,0.9,17.1c-0.8,3.8-3.6,14.8-13.9,21.7
					c-2.6,1.7-6,2.9-12.8,5.2c-4.6,1.5-6.3,1.7-10.8,3.3c-6,2.1-10.4,4.4-11.5,5c-11.1,6.2-14.6,24.9-15.3,29
					c55.9-0.1,111.9-0.2,167.8-0.3C183.4,190.9,180.7,174.3,169.9,168z"/>
				<g>
					<path class="st2" d="M183.6,185c-1.3-3.6-3.6-10.2-8.5-15.2c-4.1-4.2-7.7-4.4-24.2-9.6c-4.3-1.4-8-2.6-11-3.6
						c-2.6-1.4-4.8-2.6-6.5-3.6c-2,4.3-4.8,8.2-8.2,11.4c-1.4,1.3-5.4,4.9-11.6,7.4c-5.4,2.2-9.9,2.6-11,2.6c-0.7,0-2.5,0.1-4.9,0
						c-2.7-0.2-6.7-0.8-11.4-2.7c-2.8-1.1-7.1-3.3-11.4-7.4c-3.3-3.1-6.1-6.9-8.1-11.2c-1.6,1-3.7,2.2-6.2,3.5
						c-3,1-6.9,2.3-11.5,3.7c-16.7,5.2-20.2,5.5-24.2,9.6c-4.9,5-7.2,11.5-8.5,15.2c-2.1,6-2.8,11.5-3.1,15.2
						c57.7,0,115.5,0,173.2,0C186.5,196.5,185.8,191,183.6,185z"/>
					<g>
						<path class="st3" d="M111.5,200.2H88.6c0-9.1,0-18.3,0-27.4c2.8,0.8,6.8,1.7,11.7,1.7c4.7,0,8.5-0.9,11.2-1.7
							C111.5,181.9,111.5,191.1,111.5,200.2z"/>
						<circle class="st2" cx="100.2" cy="181" r="3.7"/>
						<circle class="st2" cx="100.4" cy="192.8" r="3.7"/>
					</g>
					<path class="st3" d="M96,157.8c-1.3-2.4-3-4-4.2-5c-6.3-5.5-12.7-10.6-15.3-12.7c-3.9,4.8-7.8,9.5-11.6,14.2
						c3.3,5,11.9,16.4,26.3,19.4c2.3,0.5,4.5,0.7,6.5,0.7c0-3.2,0-6.4,0-9.6C97.8,163.4,97.6,160.7,96,157.8z"/>
					<path class="st3" d="M104.2,157.8c1.3-2.5,3.1-4,4.2-5c6.4-5.6,12.7-10.6,15.3-12.7c3.9,4.8,7.9,9.5,11.8,14.3
						c-3.4,5-12.1,16.4-26.5,19.4c-2.3,0.5-4.5,0.7-6.6,0.7c0-3.2,0-6.4,0-9.6C102.4,163.4,102.6,160.7,104.2,157.8z"/>
				</g>
				<path class="st4" d="M80.9,123.2c0.1,1.2,0.2,2.5,0.2,3.9c0,1.6-0.2,3.1-0.4,4.4c1.7,2.1,4.6,5,8.8,7.8
					c4.1,2.7,7.1,4.6,11.3,4.6c4.3,0,7.5-2.2,11.6-4.9c3.4-2.3,5.8-4.6,7.3-6.3c-0.2-1.1-0.4-2.3-0.5-3.6c-0.2-2.5-0.1-4.8,0.2-6.7
					c-3.9,1.6-10.3,3.6-18.4,3.9C92.1,126.5,85,124.6,80.9,123.2z"/>
			</g>
			<g>
				<path class="st1" d="M65.2,84.1c-1.5-1.8-4.1-3-5.3-2c-1,0.9-0.5,2.9,0.4,9.3c1.5,10.3,1.1,11,2.3,13.4c2,4.1,5.9,8.3,7.5,7.3
					c2-1.2-1.9-9-2.8-22C67.1,89,66.9,86.2,65.2,84.1z"/>
				<path class="st1" d="M133.3,84.1c1.5-1.8,4.1-3,5.3-2c1,0.9,0.5,2.9-0.4,9.3c-1.5,10.3-1.1,11-2.3,13.4c-2,4.1-5.9,8.3-7.5,7.3
					c-2-1.2,1.9-9,2.8-22C131.4,89,131.6,86.2,133.3,84.1z"/>
			</g>
			<g>
				<g>
					<path class="st1" d="M122.8,125c-3.4,4.5-7,7.1-9.6,9.1c-5.5,4-9,6.6-13.7,6.6c-4.1,0-7.4-2.2-13.8-6.6c-6-4.1-9-6.2-11.6-9.6
						c-3.8-5-5.1-10.9-7.2-22.8c-0.6-3.5-2.4-7.9-1.8-13.8c0.7-6.3,0.9-10.8,0.9-14.1c0-5.8,0.1-8.7,0.1-10.3
						c0.4-10.9,14-30.2,32.8-30.2c21,0,31.4,24.1,31.9,25.3c4.4,10.5,2.7,22,2.9,28.9c0.1,6-1.5,10.3-2.4,14.2
						C128.8,112.7,127.5,118.8,122.8,125z"/>
					<g>
						<g>
							<path class="st4" d="M79.5,114.3c0.1,0.1,2.7-1,5.2-3.3c2.3-2,3.7-4.2,3.6-4.3c-0.1-0.1-1.4,1.6-4,3.9
								C81.5,113,79.5,114.2,79.5,114.3z"/>
							<path class="st4" d="M110.4,106.1c-0.1,0.1,0.7,2.2,2.4,4.2c2.4,3,5.3,4.4,5.4,4.3s-2-1.3-4.4-4.1
								C111.5,108.1,110.5,106,110.4,106.1z"/>
						</g>
					</g>
					<g>
						<path class="st5" d="M110.7,118.3c-3,0.9-7,1.7-11.6,1.8c-4.7-0.1-8.6-0.9-11.6-1.8c0.6,1.3,1.9,4.1,4.7,6.2
							c0.9,0.7,3.4,2.6,7,2.6s6-1.9,7-2.6C108.7,122.4,110.1,119.6,110.7,118.3z"/>
						<path class="st6" d="M112.5,117.1c0-0.1-0.3,0.1-1.1,0.2c-3,0.5-4.9-0.1-9-0.2c-0.2,0-0.4,0-0.6,0c-1.6,0-2,0.4-2.8,0.6
							c-0.9-0.1-1.2-0.5-2.8-0.6c-0.2,0-0.4,0-0.6,0c-4,0.2-6,0.7-9,0.2c-0.8-0.1-1.1-0.2-1.1-0.2c-0.1,0.3,6.3,4.6,13.8,4.5
							C106.4,121.5,112.6,117.4,112.5,117.1z"/>
					</g>
					<g>
						<path class="st4" d="M91.7,103.3c-0.1-0.1-1,0.4-1.4,1.3c-0.8,1.3-0.1,2.9,0,2.9s-0.2-1,0.3-2.2C91,104,91.8,103.4,91.7,103.3
							z"/>
						<path class="st4" d="M91.6,108.5c0-0.2,1.1-0.2,1.8,0c2.3,0.6,3.5,3.3,3.4,3.3c0,0-0.5-1.1-1.7-1.8c-0.7-0.4-1.1-0.4-2.7-1
							C91.8,108.6,91.6,108.5,91.6,108.5z"/>
						<path class="st4" d="M105.9,109.1c-0.1-0.2-0.9-0.4-1.6-0.1c-0.4,0.2-0.7,0.5-1.2,1.2c-0.3,0.3-0.4,0.6-0.5,0.7
							c-0.9,1.4-3.8,1.5-3.8,1.5s2.4,0.4,3.8-0.9c0.5-0.5,0.8-1,1.5-1.3c0.3-0.1,0.7-0.2,1.2-0.6C105.6,109.5,106,109.3,105.9,109.1
							z"/>
						<path class="st4" d="M107.2,103.3c-0.1,0,0.5,0.5,0.9,1.4c0.8,1.6,0.5,3,0.6,3s0.6-1.5-0.1-2.9
							C108.1,103.9,107.3,103.3,107.2,103.3z"/>
					</g>
					<g>
						<g>
							<g>
								<g>
									<path class="st0" d="M77.4,88.7c0.7-2.1,1.9-2.9,2.4-3.2c2.8-1.6,7.5-0.5,10.9,3.2c-0.7,0.6-3.5,2.9-7.2,2.8
										c-1.8-0.1-3.4-0.9-3.6-1C78.7,89.9,77.9,89.2,77.4,88.7z"/>
									<path class="st7" d="M79.8,87.9c0-2,1.5-3.6,3.5-3.7c1.9,0,3.5,1.6,3.6,3.6c0,2-1.5,3.6-3.5,3.7
										C81.4,91.5,79.8,89.9,79.8,87.9z"/>
									<path class="st7" d="M81.7,87.9c0-1,0.7-1.7,1.7-1.7c0.9,0,1.7,0.8,1.7,1.7c0,1-0.7,1.7-1.7,1.7
										C82.4,89.6,81.7,88.8,81.7,87.9z"/>
								</g>
								<path class="st1" d="M90.7,88.7c-1.5,0.4-2.8,0.7-3.7,0.8c-6,1-8.1,0.1-8.7-0.2c-0.4-0.2-0.7-0.4-0.9-0.6
									c0,0.7,0.1,1.6,0.6,2.3c2,2.5,7.6,0.8,7.9,0.6C87,91.3,88.9,90.5,90.7,88.7z"/>
								<path class="st7" d="M77.4,88.7c-1,0-2-0.1-3-0.1c0.6-0.8,1.7-2.1,3.8-3.1c1-0.5,3-1.4,5.6-1.2c0.4,0,2.6,0.2,4.4,1.5
									c1,0.7,1.6,1.5,1.8,1.8c0.3,0.5,0.5,0.9,0.7,1.2c-0.5-0.4-1.2-1-2.2-1.5c-1.2-0.7-2.6-1.5-4.6-1.6c-0.6,0-2-0.1-3.5,0.5
									C78.3,86.8,77.5,88.3,77.4,88.7z"/>
							</g>
							<g>
								<g>
									<path class="st0" d="M122,88.5c-0.7-2.1-1.9-2.9-2.4-3.2c-2.8-1.6-7.5-0.5-10.9,3.2c0.7,0.6,3.5,2.9,7.2,2.8
										c1.8-0.1,3.4-0.9,3.6-1C120.7,89.7,121.5,89,122,88.5z"/>
									<path class="st7" d="M119.5,87.7c0-2-1.5-3.6-3.5-3.7c-1.9,0-3.5,1.6-3.6,3.6c0,2,1.5,3.6,3.5,3.7
										C117.9,91.3,119.5,89.7,119.5,87.7z"/>
									<path class="st7" d="M117.7,87.7c0-1-0.7-1.7-1.7-1.7c-0.9,0-1.7,0.8-1.7,1.7c0,1,0.7,1.7,1.7,1.7
										C116.9,89.4,117.7,88.6,117.7,87.7z"/>
								</g>
								<path class="st1" d="M108.6,88.5c1.5,0.4,2.8,0.7,3.7,0.8c6,1,8.1,0.1,8.7-0.2c0.4-0.2,0.7-0.4,0.9-0.6
									c0,0.7-0.1,1.6-0.6,2.3c-2,2.5-7.6,0.8-7.9,0.6C112.3,91.1,110.5,90.4,108.6,88.5z"/>
								<path class="st7" d="M122,88.6c1,0,2-0.1,3-0.1c-0.6-0.8-1.7-2.1-3.8-3.1c-1-0.5-3-1.4-5.6-1.2c-0.4,0-2.6,0.2-4.4,1.5
									c-1,0.7-1.6,1.5-1.8,1.8c-0.3,0.5-0.5,0.9-0.7,1.2c0.5-0.4,1.2-1,2.2-1.5c1.2-0.7,2.6-1.5,4.6-1.6c0.6,0,2-0.1,3.5,0.5
									C121,86.6,121.8,88.1,122,88.6z"/>
							</g>
						</g>
					</g>
					<g>
						<path class="st8" d="M69.6,80.3c-0.3-0.4,1.8-3.2,5.1-4.7c0.7-0.3,2.4-1.1,4.7-1.3c2.8-0.2,4.7,0.5,6.6,1.2
							c3.3,1.2,4,2.3,4.2,2.6c0.2,0.4,0.9,1.6,0.4,2.1c-1.2,1.6-8.3-4.5-15.4-2.7C71.8,78.4,69.9,80.7,69.6,80.3z"/>
						<path class="st8" d="M129.4,80.3c0.3-0.4-1.8-3.2-5.1-4.7c-0.7-0.3-2.4-1.1-4.7-1.3c-2.8-0.2-4.7,0.5-6.6,1.2
							c-3.3,1.2-4,2.3-4.2,2.6c-0.2,0.4-0.9,1.6-0.4,2.1c1.2,1.6,8.3-4.5,15.4-2.7C127.2,78.4,129.1,80.7,129.4,80.3z"/>
					</g>
				</g>
				<path class="st8" d="M138.7,89.5c1.4-1.9,11.7-15.7,7.2-32.2c-2.6-9.5-9.4-17-16.3-20.3c-2.2-1-6.9-3.2-10.5-1.8
					c-0.1-0.7-0.2-1.4-0.5-2c-3.3-8.4-29.6-12.7-47.4-0.8C53.7,44.1,49.6,69.5,56.1,87.7c3,8.3,7.8,14.2,11.4,17.8
					c-0.4-1.6-5.4-26.1,10.4-41.6C86,56,96.4,53.5,97.7,53.2c6.9-1.6,12.7-1,16.3-0.4c1.3-1.8,3.4-5.2,4.4-9.9
					c0.9,3.1,1.2,7,0.4,12.1c4.6,2.6,7,5.6,8.3,8c6.2,10.7,0.9,25.4,5.3,27.1c0.4,0.1,0.7,0.1,0.9,0.1c0-0.5,0.1-1.2,0.3-2.1
					c0.4-2.1,0.6-3.4,1.7-4.2c0.7-0.6,1.9-0.9,2.9-0.5c0.1,0.1,0.3,0.1,0.5,0.3c0.4,0.4,0.6,1,0.4,3.2
					C139,87.4,138.9,88.3,138.7,89.5z"/>
			</g>
		</g>
	</g>
	<g>
		<path class="st9" d="M93.8,84.9c2.4,4,0.2,10.3-3.7,13.7c-3.1,2.7-6.7,3.1-8.1,3.2s-5,0.4-8.1-1.6c-5.4-3.5-7.3-12.8-3.2-17.5
			c2.9-3.4,8.1-3.2,11.3-3.2c1.6,0,5,0.2,8.3,2.2C91.6,82.6,92.9,83.4,93.8,84.9z"/>
		<path class="st9" d="M105.9,84.9c-2.4,4-0.2,10.3,3.7,13.7c3.1,2.7,6.7,3.1,8.1,3.2s5,0.4,8.1-1.6c5.4-3.5,7.3-12.8,3.2-17.5
			c-2.9-3.4-8.1-3.2-11.3-3.2c-1.6,0-5,0.2-8.3,2.2C108,82.6,106.7,83.4,105.9,84.9z"/>
		<path class="st10" d="M130.6,79.6c-3.8-0.9-16.1-3.9-24.4,2.3c-0.6,0.4-1,0.8-1.2,1c-3.6,0-7.3,0-10.9,0c-0.2-0.2-0.6-0.6-1.2-1
			c-8.2-6.2-20.9-3.2-24.4-2.3c-1.1,0.3-2.8,0.7-4.9,1.5c0,1.1,0,2.3-0.1,3.4c0.3,0,0.7,0.1,1.1,0.3c0,0,0.6,0.3,1,0.8
			c1.1,1.4,1.2,4.5,1.3,5.1c0.2,3,1.3,5.9,2.6,7.6c1.7,2.3,4.1,3.2,5.4,3.8c4.3,1.7,10.4,1.6,15.1-1.9c3.7-2.7,7.5-7.9,6.3-11.6
			c-0.4-1.1-0.9-1.9-0.4-2.8c1-1.9,6.2-1.9,7.2,0c0.5,0.8,0,1.7-0.4,2.8c-1.2,3.6,2.7,8.9,6.3,11.6c4.8,3.5,10.8,3.6,15.1,1.9
			c1.3-0.5,3.7-1.4,5.4-3.8c1.3-1.7,2.4-4.6,2.6-7.6c0-0.6,0.2-3.7,1.3-5.1c0.4-0.6,1-0.8,1-0.8c0.5-0.2,1-0.3,1.3-0.3
			c0-1.1,0.1-2.2,0.1-3.3C133.6,80.4,131.8,79.9,130.6,79.6z M89.5,98.3c-3,2.6-6.5,2.9-7.8,3.1c-1.3,0.1-4.9,0.4-7.8-1.5
			c-5.2-3.4-7-12.4-3.1-16.9c2.8-3.3,7.8-3.1,10.9-3.1c1.6,0,4.8,0.2,8,2.2c1.3,0.8,2.5,1.6,3.4,3C95.4,88.9,93.3,95,89.5,98.3z
			 M125.2,99.8c-3,1.9-6.5,1.6-7.8,1.5s-4.8-0.4-7.8-3.1c-3.8-3.3-5.8-9.4-3.6-13.2c0.9-1.4,2.1-2.2,3.4-3c3.3-2,6.5-2.1,8-2.2
			c3.1-0.1,8.1-0.2,10.9,3.1C132.2,87.5,130.4,96.4,125.2,99.8z"/>
	</g>
	<path class="st11" d="M99.7,147.5c14,0,25.9-7.8,28.7-13.2c2.8-5.5,8.4-63.9,7-67.8c-7.7-9.3-29.4-10.9-35.7-10.9
		s-28,1.6-35.7,10.9c-1.4,3.9,4.2,62.3,7,67.8C73.9,139.8,85.7,147.5,99.7,147.5"/>
</g>
<g>
	<rect x="145" y="0.1" class="st12" width="55" height="24.7"/>
	<path class="st0" d="M151,5.6h3.9L160,13V5.6h3.9V19H160l-5-7.5V19h-3.9V5.6H151z"/>
	<path class="st0" d="M167,5.6h11.1v2.9h-7v2.2h6.5v2.8h-6.5v2.7h7.2v3.1H167V5.6z"/>
	<path class="st0" d="M189.9,5.6h4.2v8.1c0,0.9-0.1,1.6-0.4,2.2c-0.2,0.7-0.6,1.3-1.2,1.8c-0.5,0.5-1.1,0.9-1.7,1.1
		c-0.9,0.2-1.8,0.5-2.9,0.5c-0.6,0-1.3,0-2.2-0.1c-0.7-0.1-1.5-0.2-2-0.5c-0.5-0.2-1-0.6-1.5-1.2c-0.5-0.5-0.7-1-0.9-1.6
		c-0.2-0.9-0.4-1.6-0.4-2.3V5.5h4.2v8.3c0,0.7,0.2,1.3,0.6,1.7c0.4,0.4,1,0.6,1.7,0.6c0.7,0,1.2-0.2,1.7-0.6c0.4-0.4,0.6-1,0.6-1.7
		V5.6H189.9z"/>
</g>
<g>
	<path class="st13" d="M46.3,21.3h-6.7c0.2,1.4,1.3,2.2,2.7,2.2c1,0,1.9-0.5,2.4-1.3c0.4,0.2,0.9,0.4,1.4,0.5
		c-0.7,1.5-2.2,2.2-3.8,2.2c-2.4,0-4.2-1.7-4.2-4.3c0-2.6,1.9-4.3,4.2-4.3c2.4,0,4.1,1.7,4.1,4.3C46.3,20.8,46.3,21.1,46.3,21.3
		 M44.8,20c-0.2-1.4-1.2-2.2-2.5-2.2c-1.4,0-2.4,0.8-2.6,2.2H44.8z"/>
	<path class="st13" d="M65,21.3h-6.7c0.2,1.4,1.3,2.2,2.7,2.2c1,0,1.9-0.5,2.4-1.3c0.4,0.2,0.9,0.4,1.4,0.5C64,24.2,62.5,25,60.9,25
		c-2.4,0-4.2-1.7-4.2-4.3c0-2.6,1.9-4.3,4.2-4.3c2.4,0,4.1,1.7,4.1,4.3C65,20.8,65,21.1,65,21.3 M63.4,20c-0.2-1.4-1.2-2.2-2.5-2.2
		c-1.4,0-2.4,0.8-2.6,2.2H63.4z"/>
	<path class="st13" d="M54.2,10v7.2c-0.8-0.6-1.7-0.9-2.7-0.9c-2.4,0-4.3,1.7-4.3,4.3c0,2.6,2,4.3,4.3,4.3c2.3,0,4.3-1.7,4.3-4.3h0
		V10H54.2z M51.5,23.4c-1.5,0-2.7-1.1-2.7-2.8c0-1.7,1.2-2.7,2.7-2.7c1.5,0,2.7,1,2.7,2.7C54.2,22.3,53,23.4,51.5,23.4"/>
	<path class="st13" d="M32.8,16.3c-1,0-2,0.3-2.7,0.9V10h-1.6v10.6h0c0,2.6,2,4.3,4.3,4.3c2.4,0,4.3-1.7,4.3-4.3
		C37.2,18,35.2,16.3,32.8,16.3 M32.8,23.4c-1.5,0-2.7-1.1-2.7-2.8c0-1.7,1.2-2.7,2.7-2.7c1.5,0,2.7,1,2.7,2.7
		C35.6,22.3,34.3,23.4,32.8,23.4"/>
	<path class="st13" d="M23.2,25H12.8c-1.6,0-2.8-1.5-2.8-3.3v-9.3h16.1v9.3C26.1,23.5,24.8,25,23.2,25 M10.5,12.9v8.8
		c0,1.5,1.1,2.8,2.3,2.8h10.4c1.3,0,2.3-1.2,2.3-2.8v-8.8H10.5z"/>
	<path class="st13" d="M14.9,14c-0.6,0-1.2,0.2-1.6,0.5V10h-1.2v6.8h0c0,1.7,1.3,2.8,2.8,2.8c1.5,0,2.8-1.1,2.8-2.8
		C17.7,15.1,16.4,14,14.9,14 M14.9,18.5c-0.9,0-1.6-0.7-1.6-1.7c0-1,0.7-1.6,1.6-1.6c0.9,0,1.6,0.6,1.6,1.6
		C16.6,17.8,15.8,18.5,14.9,18.5"/>
	<path class="st13" d="M22.8,10v4.5c-0.5-0.3-1-0.5-1.6-0.5c-1.5,0-2.8,1.1-2.8,2.8c0,1.7,1.3,2.8,2.8,2.8c1.5,0,2.8-1.1,2.8-2.8h0
		V10H22.8z M21.1,18.5c-0.9,0-1.6-0.7-1.6-1.7c0-1,0.7-1.6,1.6-1.6c0.9,0,1.6,0.6,1.6,1.6C22.8,17.8,22,18.5,21.1,18.5"/>
	<text transform="matrix(1 0 0 1 31.8036 11.9793)" class="st13 st14 st15">SWISS MADE</text>
</g>
</svg>
