<?xml version="1.0" encoding="utf-8"?>
<!-- Generator: Adobe Illustrator 22.0.0, SVG Export Plug-In . SVG Version: 6.00 Build 0)  -->
<svg version="1.1" id="Layer_1" xmlns="http://www.w3.org/2000/svg" xmlns:xlink="http://www.w3.org/1999/xlink" x="0px" y="0px"
	 viewBox="0 0 104 104" style="enable-background:new 0 0 104 104;" xml:space="preserve">
<style type="text/css">
	.st0{fill:#FFFFFF;stroke:#000000;stroke-width:4;stroke-miterlimit:10;}
	.st1{fill:none;stroke:#EB0029;stroke-width:3.5777;stroke-miterlimit:10;}
	.st2{fill:none;stroke:#000000;stroke-width:4;stroke-miterlimit:10;}
	.st3{fill:none;stroke:#000000;stroke-width:4.2041;stroke-miterlimit:10;}
</style>
<g>
	<rect x="2" y="2" class="st0" width="100" height="100"/>
</g>
<g>
	<polyline class="st1" points="37.9,39.1 28,52.5 37.9,65.9 	"/>
	<polyline class="st1" points="66.1,65.9 76,52.5 66.1,39.1 	"/>
	<line class="st1" x1="28" y1="52.5" x2="76" y2="52.5"/>
</g>
<path class="st2" d="M2,42.5c11,0,20-9,20-20s-9-20-20-20"/>
<path class="st2" d="M102,2.5c-11,0-20,9-20,20s9,20,20,20"/>
<path class="st3" d="M2,54c0,0,23.8,10.5,23.8,47.5"/>
<path class="st3" d="M102,54c0,0-23.8,10.5-23.8,47.5"/>
</svg>
