<?xml version="1.0" encoding="utf-8"?>
<!-- Generator: Adobe Illustrator 22.0.0, SVG Export Plug-In . SVG Version: 6.00 Build 0)  -->
<svg version="1.1" id="Layer_1" xmlns="http://www.w3.org/2000/svg" xmlns:xlink="http://www.w3.org/1999/xlink" x="0px" y="0px"
	 viewBox="0 0 104 104" style="enable-background:new 0 0 104 104;" xml:space="preserve">
<style type="text/css">
	.st0{fill:#FFFFFF;stroke:#000000;stroke-width:4;stroke-miterlimit:10;}
	.st1{fill:#EB0029;}
</style>
<g>
	<g>
		<rect x="2" y="2" class="st0" width="100" height="100"/>
	</g>
	<g>
		<path class="st0" d="M85,62C85,53.7,70,33,70,33S55,53.7,55,62s6.7,15,15,15S85,70.3,85,62z"/>
		<path class="st0" d="M37,41.7c0-5.5-10-19.4-10-19.4S17,36.2,17,41.7s4.5,10,10,10S37,47.2,37,41.7z"/>
		<path class="st0" d="M44.5,78.5C44.5,74.4,37,64,37,64s-7.5,10.4-7.5,14.5S32.9,86,37,86S44.5,82.7,44.5,78.5z"/>
		<circle class="st1" cx="83" cy="33.5" r="2"/>
		<circle class="st1" cx="56" cy="23.5" r="2"/>
		<circle class="st1" cx="17" cy="17.5" r="2"/>
		<circle class="st1" cx="47" cy="47.5" r="2"/>
		<circle class="st1" cx="80" cy="19.5" r="2"/>
		<circle class="st1" cx="87" cy="81.5" r="2"/>
		<circle class="st1" cx="19" cy="67.5" r="2"/>
		<circle class="st1" cx="56" cy="86.5" r="2"/>
	</g>
</g>
</svg>
