<?xml version="1.0" encoding="utf-8"?>
<!-- Generator: Adobe Illustrator 22.0.0, SVG Export Plug-In . SVG Version: 6.00 Build 0)  -->
<svg version="1.1" id="Layer_1" xmlns="http://www.w3.org/2000/svg" xmlns:xlink="http://www.w3.org/1999/xlink" x="0px" y="0px"
	 viewBox="0 0 104 104" style="enable-background:new 0 0 104 104;" xml:space="preserve">
<style type="text/css">
	.st0{fill:#FFFFFF;}
	.st1{fill:none;stroke:#000000;stroke-width:2.0101;stroke-linecap:round;stroke-linejoin:round;}
	.st2{fill:none;stroke:#000000;stroke-width:3.0151;stroke-linecap:round;stroke-linejoin:round;}
	.st3{fill:none;stroke:#00A562;stroke-width:3.0151;stroke-linecap:round;stroke-linejoin:round;}
	.st4{opacity:0.15;fill:#00A562;enable-background:new    ;}
</style>
<rect class="st0" width="104" height="104"/>
<g>
	<line class="st1" x1="28.1" y1="34.4" x2="28.1" y2="50.5"/>
	<path class="st1" d="M68.3,50.5c0,0,0-8-8-8s-31.2,0-31.2,0"/>
	<path class="st2" d="M70.3,88.7v-17c10.6-4.6,18-16.7,18-28.8c0-15.3-12.4-27.6-27.6-27.6S33.1,27.7,33.1,42.9l-7,15.6h7v17.1h12.1
		"/>
	<path class="st3" d="M20,24.4h37.2l-9,63.3H27.1C27.1,87.7,7,58.5,20,24.4z"/>
	<path class="st4" d="M20,24.4h37.2l-9,63.3H27.1C27.1,87.7,7,58.5,20,24.4z"/>
</g>
</svg>
