<?xml version="1.0" encoding="utf-8"?>
<!-- Generator: Adobe Illustrator 22.0.0, SVG Export Plug-In . SVG Version: 6.00 Build 0)  -->
<svg version="1.1" id="Layer_1" xmlns="http://www.w3.org/2000/svg" xmlns:xlink="http://www.w3.org/1999/xlink" x="0px" y="0px"
	 viewBox="0 0 600 600.9" style="enable-background:new 0 0 600 600.9;" xml:space="preserve">
<style type="text/css">
	.st0{fill:#FFFFFF;}
	.st1{fill:#FFBE8E;}
	.st2{fill:#99CBAB;}
	.st3{fill:#6F868F;}
	.st4{opacity:0.6;fill:#E87B55;enable-background:new    ;}
	.st5{fill:#E50A0A;}
	.st6{fill:#BF1616;}
	.st7{fill:#020B41;}
	.st8{fill:#53383E;}
	.st9{opacity:0.25;fill:#FFFFFF;enable-background:new    ;}
	.st10{fill:#120A39;}
	.st11{opacity:0.35;fill:#C8DCDC;stroke:#FFFFFF;stroke-width:2.1543;stroke-miterlimit:10;enable-background:new    ;}
	.st12{fill:#00A701;}
	.st13{fill:#231F20;}
</style>
<rect class="st0" width="600" height="600"/>
<g>
	<g>
		<g>
			<g>
				<path class="st1" d="M509.7,504c-5.4-3-20.1-10.5-38.1-16.8c-13.2-4.5-18-5.1-32.4-9.9c-20.4-6.9-30.6-10.5-38.4-15.6
					c-30.9-20.7-39.6-54-41.7-65.1c-4.2-21.3-0.9-39.6,2.7-51.3c-19.8-25.5-39.3-51.3-59.1-76.8c-0.9-1.2-1.8-2.1-2.4-3.3
					c-0.9,1.2-1.8,2.1-2.4,3.3c-19.8,25.5-39.3,51.3-59.1,76.8c3.6,11.7,6.9,30,2.7,51.3c-2.4,11.4-10.8,44.4-41.7,65.1
					c-7.8,5.1-18,8.7-38.4,15.6c-13.8,4.5-18.9,5.1-32.4,9.9c-18,6.3-31.2,13.2-34.5,15c-33.3,18.6-43.8,74.7-45.9,87
					c167.7-0.3,335.7-0.6,503.4-0.9C550.2,572.7,542.1,522.9,509.7,504z"/>
				<g>
					<path class="st2" d="M550.8,555c-3.9-10.8-10.8-30.6-25.5-45.6c-12.3-12.6-23.1-13.2-72.6-28.8c-12.9-4.2-24-7.8-33-10.8
						c-7.8-4.2-14.4-7.8-19.5-10.8c-6,12.9-14.4,24.6-24.6,34.2c-4.2,3.9-16.2,14.7-34.8,22.2c-16.2,6.6-29.7,7.8-33,7.8
						c-2.1,0-7.5,0.3-14.7,0c-8.1-0.6-20.1-2.4-34.2-8.1c-8.4-3.3-21.3-9.9-34.2-22.2c-9.9-9.3-18.3-20.7-24.3-33.6
						c-4.8,3-11.1,6.6-18.6,10.5c-9,3-20.7,6.9-34.5,11.1c-50.1,15.6-60.6,16.5-72.6,28.8c-14.7,15-21.6,34.5-25.5,45.6
						c-6.3,18-8.4,34.5-9.3,45.6c173.1,0,346.5,0,519.6,0C559.5,589.5,557.4,573,550.8,555z"/>
					<g>
						<path class="st3" d="M334.5,600.6h-68.7c0-27.3,0-54.9,0-82.2c8.4,2.4,20.4,5.1,35.1,5.1c14.1,0,25.5-2.7,33.6-5.1
							C334.5,545.7,334.5,573.3,334.5,600.6z"/>
						<circle class="st2" cx="300.6" cy="543" r="11.1"/>
						<circle class="st2" cx="301.2" cy="578.4" r="11.1"/>
					</g>
					<path class="st3" d="M288,473.4c-3.9-7.2-9-12-12.6-15c-18.9-16.5-38.1-31.8-45.9-38.1c-11.7,14.4-23.4,28.5-34.8,42.6
						c9.9,15,35.7,49.2,78.9,58.2c6.9,1.5,13.5,2.1,19.5,2.1c0-9.6,0-19.2,0-28.8C293.4,490.2,292.8,482.1,288,473.4z"/>
					<path class="st3" d="M312.6,473.4c3.9-7.5,9.3-12,12.6-15c19.2-16.8,38.1-31.8,45.9-38.1c11.7,14.4,23.7,28.5,35.4,42.9
						c-10.2,15-36.3,49.2-79.5,58.2c-6.9,1.5-13.5,2.1-19.8,2.1c0-9.6,0-19.2,0-28.8C307.2,490.2,307.8,482.1,312.6,473.4z"/>
				</g>
				<path class="st4" d="M242.7,369.6c0.3,3.6,0.6,7.5,0.6,11.7c0,4.8-0.6,9.3-1.2,13.2c5.1,6.3,13.8,15,26.4,23.4
					c12.3,8.1,21.3,13.8,33.9,13.8c12.9,0,22.5-6.6,34.8-14.7c10.2-6.9,17.4-13.8,21.9-18.9c-0.6-3.3-1.2-6.9-1.5-10.8
					c-0.6-7.5-0.3-14.4,0.6-20.1c-11.7,4.8-30.9,10.8-55.2,11.7C276.3,379.5,255,373.8,242.7,369.6z"/>
			</g>
			<g>
				<path class="st1" d="M195.6,252.3c-4.5-5.4-12.3-9-15.9-6c-3,2.7-1.5,8.7,1.2,27.9c4.5,30.9,3.3,33,6.9,40.2
					c6,12.3,17.7,24.9,22.5,21.9c6-3.6-5.7-27-8.4-66C201.3,267,200.7,258.6,195.6,252.3z"/>
				<path class="st1" d="M399.9,252.3c4.5-5.4,12.3-9,15.9-6c3,2.7,1.5,8.7-1.2,27.9c-4.5,30.9-3.3,33-6.9,40.2
					c-6,12.3-17.7,24.9-22.5,21.9c-6-3.6,5.7-27,8.4-66C394.2,267,394.8,258.6,399.9,252.3z"/>
			</g>
			<g>
				<g>
					<path class="st1" d="M368.4,375c-10.2,13.5-21,21.3-28.8,27.3c-16.5,12-27,19.8-41.1,19.8c-12.3,0-22.2-6.6-41.4-19.8
						c-18-12.3-27-18.6-34.8-28.8c-11.4-15-15.3-32.7-21.6-68.4c-1.8-10.5-7.2-23.7-5.4-41.4c2.1-18.9,2.7-32.4,2.7-42.3
						c0-17.4,0.3-26.1,0.3-30.9c1.2-32.7,42-90.6,98.4-90.6c63,0,94.2,72.3,95.7,75.9c13.2,31.5,8.1,66,8.7,86.7
						c0.3,18-4.5,30.9-7.2,42.6C386.4,338.1,382.5,356.4,368.4,375z"/>
					<g>
						<g>
							<path class="st4" d="M238.5,342.9c0.3,0.3,8.1-3,15.6-9.9c6.9-6,11.1-12.6,10.8-12.9c-0.3-0.3-4.2,4.8-12,11.7
								C244.5,339,238.5,342.6,238.5,342.9z"/>
							<path class="st4" d="M331.2,318.3c-0.3,0.3,2.1,6.6,7.2,12.6c7.2,9,15.9,13.2,16.2,12.9s-6-3.9-13.2-12.3
								C334.5,324.3,331.5,318,331.2,318.3z"/>
						</g>
					</g>
					<g>
						<path class="st5" d="M332.1,354.9c-9,2.7-21,5.1-34.8,5.4c-14.1-0.3-25.8-2.7-34.8-5.4c1.8,3.9,5.7,12.3,14.1,18.6
							c2.7,2.1,10.2,7.8,21,7.8s18-5.7,21-7.8C326.1,367.2,330.3,358.8,332.1,354.9z"/>
						<path class="st6" d="M337.5,351.3c0-0.3-0.9,0.3-3.3,0.6c-9,1.5-14.7-0.3-27-0.6c-0.6,0-1.2,0-1.8,0c-4.8,0-6,1.2-8.4,1.8
							c-2.7-0.3-3.6-1.5-8.4-1.8c-0.6,0-1.2,0-1.8,0c-12,0.6-18,2.1-27,0.6c-2.4-0.3-3.3-0.6-3.3-0.6c-0.3,0.9,18.9,13.8,41.4,13.5
							C319.2,364.5,337.8,352.2,337.5,351.3z"/>
					</g>
					<g>
						<path class="st4" d="M275.1,309.9c-0.3-0.3-3,1.2-4.2,3.9c-2.4,3.9-0.3,8.7,0,8.7c0.3,0-0.6-3,0.9-6.6
							C273,312,275.4,310.2,275.1,309.9z"/>
						<path class="st4" d="M274.8,325.5c0-0.6,3.3-0.6,5.4,0c6.9,1.8,10.5,9.9,10.2,9.9c0,0-1.5-3.3-5.1-5.4c-2.1-1.2-3.3-1.2-8.1-3
							C275.4,325.8,274.8,325.5,274.8,325.5z"/>
						<path class="st4" d="M317.7,327.3c-0.3-0.6-2.7-1.2-4.8-0.3c-1.2,0.6-2.1,1.5-3.6,3.6c-0.9,0.9-1.2,1.8-1.5,2.1
							c-2.7,4.2-11.4,4.5-11.4,4.5s7.2,1.2,11.4-2.7c1.5-1.5,2.4-3,4.5-3.9c0.9-0.3,2.1-0.6,3.6-1.8
							C316.8,328.5,318,327.9,317.7,327.3z"/>
						<path class="st4" d="M321.6,309.9c-0.3,0,1.5,1.5,2.7,4.2c2.4,4.8,1.5,9,1.8,9s1.8-4.5-0.3-8.7
							C324.3,311.7,321.9,309.9,321.6,309.9z"/>
					</g>
					<g>
						<g>
							<g>
								<g>
									<path class="st0" d="M232.2,266.1c2.1-6.3,5.7-8.7,7.2-9.6c8.4-4.8,22.5-1.5,32.7,9.6c-2.1,1.8-10.5,8.7-21.6,8.4
										c-5.4-0.3-10.2-2.7-10.8-3C236.1,269.7,233.7,267.6,232.2,266.1z"/>
									<path class="st7" d="M239.4,263.7c0-6,4.5-10.8,10.5-11.1c5.7,0,10.5,4.8,10.8,10.8c0,6-4.5,10.8-10.5,11.1
										C244.2,274.5,239.4,269.7,239.4,263.7z"/>
									<path class="st7" d="M245.1,263.7c0-3,2.1-5.1,5.1-5.1c2.7,0,5.1,2.4,5.1,5.1c0,3-2.1,5.1-5.1,5.1
										C247.2,268.8,245.1,266.4,245.1,263.7z"/>
								</g>
								<path class="st1" d="M272.1,266.1c-4.5,1.2-8.4,2.1-11.1,2.4c-18,3-24.3,0.3-26.1-0.6c-1.2-0.6-2.1-1.2-2.7-1.8
									c0,2.1,0.3,4.8,1.8,6.9c6,7.5,22.8,2.4,23.7,1.8C261,273.9,266.7,271.5,272.1,266.1z"/>
								<path class="st7" d="M232.2,266.1c-3,0-6-0.3-9-0.3c1.8-2.4,5.1-6.3,11.4-9.3c3-1.5,9-4.2,16.8-3.6c1.2,0,7.8,0.6,13.2,4.5
									c3,2.1,4.8,4.5,5.4,5.4c0.9,1.5,1.5,2.7,2.1,3.6c-1.5-1.2-3.6-3-6.6-4.5c-3.6-2.1-7.8-4.5-13.8-4.8c-1.8,0-6-0.3-10.5,1.5
									C234.9,260.4,232.5,264.9,232.2,266.1z"/>
							</g>
							<g>
								<g>
									<path class="st0" d="M366,265.5c-2.1-6.3-5.7-8.7-7.2-9.6c-8.4-4.8-22.5-1.5-32.7,9.6c2.1,1.8,10.5,8.7,21.6,8.4
										c5.4-0.3,10.2-2.7,10.8-3C362.1,269.1,364.5,267,366,265.5z"/>
									<path class="st7" d="M358.5,263.1c0-6-4.5-10.8-10.5-11.1c-5.7,0-10.5,4.8-10.8,10.8c0,6,4.5,10.8,10.5,11.1
										C353.7,273.9,358.5,269.1,358.5,263.1z"/>
									<path class="st7" d="M353.1,263.1c0-3-2.1-5.1-5.1-5.1c-2.7,0-5.1,2.4-5.1,5.1c0,3,2.1,5.1,5.1,5.1
										C350.7,268.2,353.1,265.8,353.1,263.1z"/>
								</g>
								<path class="st1" d="M325.8,265.5c4.5,1.2,8.4,2.1,11.1,2.4c18,3,24.3,0.3,26.1-0.6c1.2-0.6,2.1-1.2,2.7-1.8
									c0,2.1-0.3,4.8-1.8,6.9c-6,7.5-22.8,2.4-23.7,1.8C336.9,273.3,331.5,271.2,325.8,265.5z"/>
								<path class="st7" d="M366,265.8c3,0,6-0.3,9-0.3c-1.8-2.4-5.1-6.3-11.4-9.3c-3-1.5-9-4.2-16.8-3.6c-1.2,0-7.8,0.6-13.2,4.5
									c-3,2.1-4.8,4.5-5.4,5.4c-0.9,1.5-1.5,2.7-2.1,3.6c1.5-1.2,3.6-3,6.6-4.5c3.6-2.1,7.8-4.5,13.8-4.8c1.8,0,6-0.3,10.5,1.5
									C363,259.8,365.4,264.3,366,265.8z"/>
							</g>
						</g>
					</g>
					<g>
						<path class="st8" d="M208.8,240.9c-0.9-1.2,5.4-9.6,15.3-14.1c2.1-0.9,7.2-3.3,14.1-3.9c8.4-0.6,14.1,1.5,19.8,3.6
							c9.9,3.6,12,6.9,12.6,7.8c0.6,1.2,2.7,4.8,1.2,6.3c-3.6,4.8-24.9-13.5-46.2-8.1C215.4,235.2,209.7,242.1,208.8,240.9z"/>
						<path class="st8" d="M388.2,240.9c0.9-1.2-5.4-9.6-15.3-14.1c-2.1-0.9-7.2-3.3-14.1-3.9c-8.4-0.6-14.1,1.5-19.8,3.6
							c-9.9,3.6-12,6.9-12.6,7.8c-0.6,1.2-2.7,4.8-1.2,6.3c3.6,4.8,24.9-13.5,46.2-8.1C381.6,235.2,387.3,242.1,388.2,240.9z"/>
					</g>
				</g>
				<path class="st8" d="M416.1,268.5c4.2-5.7,35.1-47.1,21.6-96.6c-7.8-28.5-28.2-51-48.9-60.9c-6.6-3-20.7-9.6-31.5-5.4
					c-0.3-2.1-0.6-4.2-1.5-6c-9.9-25.2-88.8-38.1-142.2-2.4c-52.5,35.1-64.8,111.3-45.3,165.9c9,24.9,23.4,42.6,34.2,53.4
					c-1.2-4.8-16.2-78.3,31.2-124.8c24.3-23.7,55.5-31.2,59.4-32.1c20.7-4.8,38.1-3,48.9-1.2c3.9-5.4,10.2-15.6,13.2-29.7
					c2.7,9.3,3.6,21,1.2,36.3c13.8,7.8,21,16.8,24.9,24c18.6,32.1,2.7,76.2,15.9,81.3c1.2,0.3,2.1,0.3,2.7,0.3
					c0-1.5,0.3-3.6,0.9-6.3c1.2-6.3,1.8-10.2,5.1-12.6c2.1-1.8,5.7-2.7,8.7-1.5c0.3,0.3,0.9,0.3,1.5,0.9c1.2,1.2,1.8,3,1.2,9.6
					C417,262.2,416.7,264.9,416.1,268.5z"/>
			</g>
		</g>
	</g>
	<g>
		<path class="st9" d="M281.4,254.7c7.2,12,0.6,30.9-11.1,41.1c-9.3,8.1-20.1,9.3-24.3,9.6c-4.2,0.3-15,1.2-24.3-4.8
			c-16.2-10.5-21.9-38.4-9.6-52.5c8.7-10.2,24.3-9.6,33.9-9.6c4.8,0,15,0.6,24.9,6.6C274.8,247.8,278.7,250.2,281.4,254.7z"/>
		<path class="st9" d="M317.7,254.7c-7.2,12-0.6,30.9,11.1,41.1c9.3,8.1,20.1,9.3,24.3,9.6c4.2,0.3,15,1.2,24.3-4.8
			c16.2-10.5,21.9-38.4,9.6-52.5c-8.7-10.2-24.3-9.6-33.9-9.6c-4.8,0-15,0.6-24.9,6.6C324,247.8,320.1,250.2,317.7,254.7z"/>
		<path class="st10" d="M391.8,238.8c-11.4-2.7-48.3-11.7-73.2,6.9c-1.8,1.2-3,2.4-3.6,3c-10.8,0-21.9,0-32.7,0
			c-0.6-0.6-1.8-1.8-3.6-3c-24.6-18.6-62.7-9.6-73.2-6.9c-3.3,0.9-8.4,2.1-14.7,4.5c0,3.3,0,6.9-0.3,10.2c0.9,0,2.1,0.3,3.3,0.9
			c0,0,1.8,0.9,3,2.4c3.3,4.2,3.6,13.5,3.9,15.3c0.6,9,3.9,17.7,7.8,22.8c5.1,6.9,12.3,9.6,16.2,11.4c12.9,5.1,31.2,4.8,45.3-5.7
			c11.1-8.1,22.5-23.7,18.9-34.8c-1.2-3.3-2.7-5.7-1.2-8.4c3-5.7,18.6-5.7,21.6,0c1.5,2.4,0,5.1-1.2,8.4
			c-3.6,10.8,8.1,26.7,18.9,34.8c14.4,10.5,32.4,10.8,45.3,5.7c3.9-1.5,11.1-4.2,16.2-11.4c3.9-5.1,7.2-13.8,7.8-22.8
			c0-1.8,0.6-11.1,3.9-15.3c1.2-1.8,3-2.4,3-2.4c1.5-0.6,3-0.9,3.9-0.9c0-3.3,0.3-6.6,0.3-9.9C400.8,241.2,395.4,239.7,391.8,238.8z
			 M268.5,294.9c-9,7.8-19.5,8.7-23.4,9.3c-3.9,0.3-14.7,1.2-23.4-4.5c-15.6-10.2-21-37.2-9.3-50.7c8.4-9.9,23.4-9.3,32.7-9.3
			c4.8,0,14.4,0.6,24,6.6c3.9,2.4,7.5,4.8,10.2,9C286.2,266.7,279.9,285,268.5,294.9z M375.6,299.4c-9,5.7-19.5,4.8-23.4,4.5
			c-3.9-0.3-14.4-1.2-23.4-9.3c-11.4-9.9-17.4-28.2-10.8-39.6c2.7-4.2,6.3-6.6,10.2-9c9.9-6,19.5-6.3,24-6.6
			c9.3-0.3,24.3-0.6,32.7,9.3C396.6,262.5,391.2,289.2,375.6,299.4z"/>
	</g>
	<path class="st11" d="M299.1,442.5c42,0,77.7-23.4,86.1-39.6c8.4-16.5,25.2-191.7,21-203.4c-23.1-27.9-88.2-32.7-107.1-32.7
		s-84,4.8-107.1,32.7c-4.2,11.7,12.6,186.9,21,203.4C221.7,419.4,257.1,442.5,299.1,442.5"/>
</g>
<g>
	<rect x="435" y="0.3" class="st12" width="165" height="74.1"/>
	<path class="st0" d="M453,16.8h11.7L480,39V16.8h11.7V57H480l-15-22.5V57h-11.7V16.8H453z"/>
	<path class="st0" d="M501,16.8h33.3v8.7h-21v6.6h19.5v8.4h-19.5v8.1h21.6v9.3H501V16.8z"/>
	<path class="st0" d="M569.7,16.8h12.6v24.3c0,2.7-0.3,4.8-1.2,6.6c-0.6,2.1-1.8,3.9-3.6,5.4c-1.5,1.5-3.3,2.7-5.1,3.3
		c-2.7,0.6-5.4,1.5-8.7,1.5c-1.8,0-3.9,0-6.6-0.3c-2.1-0.3-4.5-0.6-6-1.5c-1.5-0.6-3-1.8-4.5-3.6c-1.5-1.5-2.1-3-2.7-4.8
		c-0.6-2.7-1.2-4.8-1.2-6.9V16.5h12.6v24.9c0,2.1,0.6,3.9,1.8,5.1s3,1.8,5.1,1.8c2.1,0,3.6-0.6,5.1-1.8c1.2-1.2,1.8-3,1.8-5.1V16.8
		H569.7z"/>
</g>
<path class="st13" d="M139,57.8h-20.1c0.6,4.1,3.8,6.7,8,6.7c3,0,5.7-1.4,7.1-3.8c1.3,0.5,2.8,1.1,4.1,1.6
	c-2.1,4.4-6.6,6.6-11.4,6.6c-7.1,0-12.7-5.1-12.7-13c0-7.9,5.6-12.8,12.7-12.8c7.1,0,12.3,5,12.3,12.8C139,56.4,139,57.2,139,57.8
	 M134.2,54c-0.6-4.1-3.6-6.6-7.5-6.6c-4.1,0-7.3,2.5-7.9,6.6H134.2z"/>
<path class="st13" d="M194.9,57.8h-20.1c0.6,4.1,3.8,6.7,8,6.7c3,0,5.7-1.4,7.1-3.8c1.3,0.5,2.8,1.1,4.1,1.6
	c-2.1,4.4-6.6,6.6-11.4,6.6c-7.1,0-12.7-5.1-12.7-13c0-7.9,5.6-12.8,12.7-12.8c7.1,0,12.3,5,12.3,12.8C195,56.4,195,57.2,194.9,57.8
	 M190.2,54c-0.6-4.1-3.6-6.6-7.5-6.6c-4.1,0-7.3,2.5-7.9,6.6H190.2z"/>
<path class="st13" d="M162.6,24v21.7c-2.3-1.7-5.1-2.7-8.2-2.7c-7.1,0-13,5-13,12.8c0,7.9,5.9,13,13,13c7,0,13-5.1,13-12.9h0V24
	H162.6z M154.5,64.2c-4.5,0-8.2-3.3-8.2-8.3c0-5,3.7-8.1,8.2-8.1c4.5,0,8.2,3.1,8.2,8.1C162.6,60.9,158.9,64.2,154.5,64.2"/>
<path class="st13" d="M98.5,43c-3.1,0-5.9,1-8.2,2.7V24h-4.8v31.9h0c0,7.8,6,12.9,13,12.9c7.1,0,13-5.1,13-13
	C111.5,48,105.6,43,98.5,43 M98.5,64.2c-4.5,0-8.2-3.3-8.2-8.3c0-5,3.7-8.1,8.2-8.1c4.5,0,8.2,3.1,8.2,8.1
	C106.7,60.9,103,64.2,98.5,64.2"/>
<path class="st13" d="M69.7,68.9H38.5c-4.7,0-8.5-4.4-8.5-9.8V31.3h48.2v27.8C78.2,64.5,74.4,68.9,69.7,68.9 M31.5,32.8v26.3
	c0,4.6,3.2,8.3,7,8.3h31.2c3.9,0,7-3.7,7-8.3V32.8H31.5z"/>
<path class="st13" d="M44.8,36.1c-1.8,0-3.5,0.5-4.9,1.5V24h-3.5v20.5h0c0,5,3.9,8.4,8.4,8.4c4.5,0,8.4-3.3,8.4-8.4
	C53.2,39.3,49.3,36.1,44.8,36.1 M44.8,49.4c-2.7,0-4.9-2-4.9-5c0-3,2.2-4.8,4.9-4.8c2.6,0,4.8,1.9,4.8,4.8
	C49.7,47.4,47.5,49.4,44.8,49.4"/>
<path class="st13" d="M68.4,24v13.6c-1.4-0.9-3.1-1.5-4.9-1.5c-4.5,0-8.4,3.2-8.4,8.3c0,5.1,3.8,8.4,8.4,8.4c4.6,0,8.4-3.3,8.4-8.4
	h0V24H68.4z M63.4,49.4c-2.6,0-4.8-2-4.8-5c0-3,2.2-4.8,4.8-4.8c2.7,0,4.9,1.9,4.9,4.8C68.3,47.4,66.1,49.4,63.4,49.4"/>
<g>
	<path class="st13" d="M38.2,89.9c0,0.8,0.2,1.5,0.6,2c0.6,0.9,1.7,1.4,3.3,1.4c0.7,0,1.3-0.1,1.9-0.3c1.1-0.4,1.7-1.1,1.7-2.2
		c0-0.8-0.2-1.3-0.7-1.7c-0.5-0.3-1.2-0.6-2.2-0.8l-1.9-0.4c-1.2-0.3-2.1-0.6-2.6-0.9c-0.9-0.6-1.3-1.5-1.3-2.7
		c0-1.3,0.4-2.3,1.3-3.2c0.9-0.8,2.1-1.2,3.7-1.2c1.5,0,2.7,0.4,3.7,1.1c1,0.7,1.5,1.9,1.5,3.5h-1.8c-0.1-0.8-0.3-1.4-0.6-1.8
		c-0.6-0.7-1.5-1.1-2.9-1.1c-1.1,0-1.9,0.2-2.4,0.7c-0.5,0.5-0.7,1-0.7,1.7c0,0.7,0.3,1.2,0.9,1.5c0.4,0.2,1.2,0.5,2.5,0.8l1.9,0.5
		c0.9,0.2,1.7,0.5,2.2,0.9c0.9,0.7,1.3,1.6,1.3,2.9c0,1.6-0.6,2.7-1.7,3.4c-1.1,0.7-2.4,1-3.9,1c-1.7,0-3.1-0.5-4.1-1.4
		c-1-0.9-1.5-2.1-1.4-3.7H38.2z"/>
	<path class="st13" d="M54.4,80.2l2.7,11.6l3.2-11.6h2.1l3.2,11.7l2.7-11.7h2.1l-3.8,14.3h-2l-3.3-11.9l-3.3,11.9h-2l-3.7-14.3H54.4
		z"/>
	<path class="st13" d="M75.9,80.2h2v14.3h-2V80.2z"/>
	<path class="st13" d="M85.5,89.9c0,0.8,0.2,1.5,0.6,2c0.6,0.9,1.7,1.4,3.3,1.4c0.7,0,1.3-0.1,1.9-0.3c1.1-0.4,1.7-1.1,1.7-2.2
		c0-0.8-0.2-1.3-0.7-1.7c-0.5-0.3-1.2-0.6-2.2-0.8l-1.9-0.4c-1.2-0.3-2.1-0.6-2.6-0.9c-0.9-0.6-1.3-1.5-1.3-2.7
		c0-1.3,0.4-2.3,1.3-3.2c0.9-0.8,2.1-1.2,3.7-1.2c1.5,0,2.7,0.4,3.7,1.1c1,0.7,1.5,1.9,1.5,3.5h-1.8c-0.1-0.8-0.3-1.4-0.6-1.8
		c-0.6-0.7-1.5-1.1-2.9-1.1c-1.1,0-1.9,0.2-2.4,0.7c-0.5,0.5-0.7,1-0.7,1.7c0,0.7,0.3,1.2,0.9,1.5c0.4,0.2,1.2,0.5,2.5,0.8l1.9,0.5
		c0.9,0.2,1.7,0.5,2.2,0.9c0.9,0.7,1.3,1.6,1.3,2.9c0,1.6-0.6,2.7-1.7,3.4c-1.1,0.7-2.4,1-3.9,1c-1.7,0-3.1-0.5-4.1-1.4
		c-1-0.9-1.5-2.1-1.4-3.7H85.5z"/>
	<path class="st13" d="M102,89.9c0,0.8,0.2,1.5,0.6,2c0.6,0.9,1.7,1.4,3.3,1.4c0.7,0,1.3-0.1,1.9-0.3c1.1-0.4,1.7-1.1,1.7-2.2
		c0-0.8-0.2-1.3-0.7-1.7c-0.5-0.3-1.2-0.6-2.2-0.8l-1.9-0.4c-1.2-0.3-2.1-0.6-2.6-0.9c-0.9-0.6-1.3-1.5-1.3-2.7
		c0-1.3,0.4-2.3,1.3-3.2c0.9-0.8,2.1-1.2,3.7-1.2c1.5,0,2.7,0.4,3.7,1.1c1,0.7,1.5,1.9,1.5,3.5h-1.8c-0.1-0.8-0.3-1.4-0.6-1.8
		c-0.6-0.7-1.5-1.1-2.9-1.1c-1.1,0-1.9,0.2-2.4,0.7c-0.5,0.5-0.7,1-0.7,1.7c0,0.7,0.3,1.2,0.9,1.5c0.4,0.2,1.2,0.5,2.5,0.8l1.9,0.5
		c0.9,0.2,1.7,0.5,2.2,0.9c0.9,0.7,1.3,1.6,1.3,2.9c0,1.6-0.6,2.7-1.7,3.4c-1.1,0.7-2.4,1-3.9,1c-1.7,0-3.1-0.5-4.1-1.4
		c-1-0.9-1.5-2.1-1.4-3.7H102z"/>
	<path class="st13" d="M126,80.2h2.8l4.1,12.1l4.1-12.1h2.8v14.3h-1.9v-8.5c0-0.3,0-0.8,0-1.5c0-0.7,0-1.4,0-2.2l-4.1,12.1h-1.9
		l-4.1-12.1v0.4c0,0.4,0,0.9,0,1.6c0,0.7,0,1.2,0,1.6v8.5H126V80.2z"/>
	<path class="st13" d="M150,80.2h2.2l5.2,14.3h-2.1l-1.5-4.3h-5.6l-1.6,4.3h-2L150,80.2z M153.2,88.7l-2.2-6.3l-2.3,6.3H153.2z"/>
	<path class="st13" d="M162.4,80.2h5.7c1.9,0,3.5,0.7,4.5,2.1c1,1.3,1.4,2.9,1.4,4.8c0,1.5-0.3,2.9-0.8,4.1c-1,2.2-2.7,3.3-5.1,3.3
		h-5.7V80.2z M167.8,92.9c0.6,0,1.2-0.1,1.6-0.2c0.7-0.3,1.3-0.7,1.8-1.5c0.4-0.6,0.6-1.3,0.8-2.2c0.1-0.5,0.1-1,0.1-1.5
		c0-1.8-0.3-3.2-1-4.1c-0.7-1-1.8-1.5-3.3-1.5h-3.4v11H167.8z"/>
	<path class="st13" d="M180.1,80.2h10.4V82H182v4.3h7.9V88H182v4.9h8.6v1.7h-10.5V80.2z"/>
</g>
</svg>
