<?xml version="1.0" encoding="utf-8"?>
<!-- Generator: Adobe Illustrator 22.0.0, SVG Export Plug-In . SVG Version: 6.00 Build 0)  -->
<svg version="1.1" id="Layer_1" xmlns="http://www.w3.org/2000/svg" xmlns:xlink="http://www.w3.org/1999/xlink" x="0px" y="0px"
	 viewBox="0 0 104 104" style="enable-background:new 0 0 104 104;" xml:space="preserve">
<style type="text/css">
	.st0{fill:#FFFFFF;stroke:#000000;stroke-width:4;stroke-miterlimit:10;}
	.st1{fill:none;stroke:#000000;stroke-width:2.0101;stroke-linecap:round;stroke-linejoin:round;}
	.st2{fill:none;stroke:#000000;stroke-width:3.0151;stroke-linecap:round;stroke-linejoin:round;}
	.st3{fill:none;stroke:#00A562;stroke-width:3.0151;stroke-linecap:round;stroke-linejoin:round;}
	.st4{opacity:0.15;fill:#00A562;}
	.st5{fill:#EB0029;}
	.st6{fill:#FFFFFF;}
</style>
<g>
	<rect x="2" y="2" class="st0" width="100" height="100"/>
</g>
<g>
	<line class="st1" x1="28.1" y1="33.4" x2="28.1" y2="49.5"/>
	<path class="st1" d="M68.3,49.5c0,0,0-8-8-8s-31.2,0-31.2,0"/>
	<path class="st2" d="M70.3,87.7v-17c10.6-4.6,18-16.7,18-28.8c0-15.3-12.4-27.6-27.6-27.6S33.1,26.7,33.1,41.9l-7,15.6h7v17.1h12.1
		"/>
	<path class="st3" d="M20,23.4h37.2l-9,63.3H27.1C27.1,86.7,7,57.5,20,23.4z"/>
	<path class="st4" d="M20,23.4h37.2l-9,63.3H27.1C27.1,86.7,7,57.5,20,23.4z"/>
</g>
<g>
	<rect x="59" y="83.8" class="st5" width="45" height="20.2"/>
	<path class="st6" d="M63.9,88.3h3.2l4.2,6.1v-6.1h3.2v11h-3.2l-4.1-6.1v6.1h-3.2V88.3z"/>
	<path class="st6" d="M77,88.3h9.1v2.4h-5.7v1.8h5.3v2.3h-5.3v2.2h5.9v2.5H77V88.3z"/>
	<path class="st6" d="M95.7,88.3h3.4v6.6c0,0.7-0.1,1.3-0.3,1.8c-0.2,0.6-0.5,1.1-1,1.5c-0.4,0.4-0.9,0.7-1.4,0.9
		c-0.7,0.2-1.5,0.4-2.4,0.4c-0.5,0-1.1,0-1.8-0.1c-0.6-0.1-1.2-0.2-1.6-0.4c-0.4-0.2-0.8-0.5-1.2-1c-0.4-0.4-0.6-0.8-0.7-1.3
		c-0.2-0.7-0.3-1.3-0.3-1.9v-6.6h3.4V95c0,0.6,0.2,1.1,0.5,1.4c0.3,0.3,0.8,0.5,1.4,0.5c0.6,0,1-0.2,1.4-0.5
		c0.3-0.3,0.5-0.8,0.5-1.4V88.3z"/>
</g>
</svg>
