<?xml version="1.0" encoding="utf-8"?>
<!-- Generator: Adobe Illustrator 22.0.0, SVG Export Plug-In . SVG Version: 6.00 Build 0)  -->
<svg version="1.1" id="Layer_1" xmlns="http://www.w3.org/2000/svg" xmlns:xlink="http://www.w3.org/1999/xlink" x="0px" y="0px"
	 viewBox="0 0 104 104" style="enable-background:new 0 0 104 104;" xml:space="preserve">
<style type="text/css">
	.st0{fill:#FFFFFF;stroke:#000000;stroke-width:4;stroke-miterlimit:10;}
	.st1{fill:none;stroke:#000000;stroke-width:4;stroke-linecap:round;stroke-miterlimit:10;}
	.st2{fill:none;stroke:#000000;stroke-width:4;stroke-linecap:round;stroke-linejoin:round;stroke-miterlimit:10;}
	.st3{fill:#EB0029;}
</style>
<g>
	<rect x="2" y="2" class="st0" width="100" height="100"/>
</g>
<g>
	<path class="st1" d="M41.5,30.3v-2.2c0-2.4,1.9-4.3,4.3-4.3h0c2.4,0,4.3,1.9,4.3,4.3v23.7"/>
	<path class="st1" d="M58.7,52.4V22.2c0-2.4-1.9-4.3-4.3-4.3h0c-2.4,0-4.3,1.9-4.3,4.3v12.3"/>
	<path class="st1" d="M58.7,27.6c0-2.4,1.9-4.3,4.3-4.3h0c2.4,0,4.3,1.9,4.3,4.3v24.8"/>
	<path class="st2" d="M67.4,33c0-2.4,1.9-4.3,4.3-4.3h0c2.4,0,4.3,1.9,4.3,4.3v1.6v2.2l0,30.1c0,9.9-7.6,18.4-17.5,19
		c-6.6,0.4-10.7,0.1-15.3-4.5L22.9,61.4c-0.9-1.2-1.3-2.3-1.2-3.8c0.2-2.2,2-3.8,4.2-3.9c1.3,0,2.6,0.2,3.7,0.8l11.8,7.6V29.2"/>
</g>
<circle class="st3" cx="48" cy="61.5" r="2"/>
<circle class="st3" cx="63" cy="75.5" r="2"/>
<circle class="st3" cx="74" cy="36.5" r="2"/>
<circle class="st3" cx="48" cy="28.5" r="2"/>
<circle class="st3" cx="57" cy="40.5" r="2"/>
<circle class="st3" cx="61" cy="26.5" r="2"/>
<circle class="st3" cx="66" cy="53.5" r="2"/>
<circle class="st3" cx="74" cy="63.5" r="2"/>
<circle class="st3" cx="27" cy="61.5" r="2"/>
</svg>
